<svg id="Layer_1" data-name="Layer 1" xmlns="http://www.w3.org/2000/svg" viewBox="0 0 184.8 48.61">
  <defs>
    <style>
      .cls-1 {
        fill: #231f20;
      }
    </style>
  </defs>
  <g>
    <path class="cls-1" d="M211.79,206.61v-3.38h21.46v3.38l-9.76,1.08h-1.78Zm11.7,39.93,9.36,1.08V251H211.79v-3.38l9.92-1.08Zm-5.52-21c0-7.41,0-14.9-.22-22.32h9.4c-.22,7.27-.22,14.76-.22,22.32v4.29c0,6.25,0,13.74.22,21.16h-9.4c.22-7.27.22-14.76.22-22.32Zm4.6,8.82,25.31-31.14h4.85l-30.16,36Zm14.78-15.56L254.83,251h-10L231.7,225.65Zm.71,28.81,9.17-1.08h1.37l9.06,1.08V251h-19.6Zm1.34-41v-3.38H256v3.38l-8.13,1.08-1.79.23Z" transform="translate(-211.79 -203.23)"/>
    <path class="cls-1" d="M263.76,212.64l-4.34-.6v-2.32l10.72-2.7.91.55-.24,8.45V228.3l.18.78v9.32c0,3.72.06,9.9.18,12.6h-7.59c.12-2.7.18-8.88.18-12.6Zm10.82,35.91V251H259.77v-2.45l6.07-1.2h2.91Zm14.71-16.42v6.27c0,3.84.06,9.9.18,12.6h-7.58c.12-2.7.18-8.76.18-12.6v-5.68c0-4.72-1.11-6.28-4.12-6.28-2.6,0-5.13,1.48-8.06,4.5h-1.73v-3.52h3.5l-2.5,1.39c3.53-4.95,7.63-7.38,11.91-7.38C286.3,221.43,289.29,224.72,289.29,232.13Zm-2.22,15.22,5.94,1.2V251H278.17v-2.45l6-1.2Z" transform="translate(-211.79 -203.23)"/>
    <path class="cls-1" d="M307.37,234.77c2.5-.81,6.52-1.91,9.43-2.52v2.34a55.75,55.75,0,0,0-7.93,2.4c-4,1.62-5.23,3.76-5.23,6,0,3.1,1.84,4.42,4.23,4.42,1.61,0,2.68-.62,5.51-2.66l1.82-1.37.73,1.07-2.14,2.24c-3.25,3.34-5.2,5.11-9.21,5.11-4.51,0-7.95-2.63-7.95-7.59C296.63,240.44,298.72,237.58,307.37,234.77Zm5.71,11V231.43c0-5.6-1.35-7.1-5.24-7.1a16.94,16.94,0,0,0-5.51,1l3.28-2.11-1,4.66c-.34,2.88-1.77,4.17-3.74,4.17a3.09,3.09,0,0,1-3.38-2.71c.72-4.77,5.36-7.88,12.7-7.88,6.95,0,10,3,10,10.84v13.09c0,1.93.67,2.7,1.78,2.7a2.58,2.58,0,0,0,2.08-1.32l1.4,1.18a6.22,6.22,0,0,1-6.18,3.81C315.55,251.73,313.35,249.46,313.08,245.79Z" transform="translate(-211.79 -203.23)"/>
    <path class="cls-1" d="M331.68,238.4V225.9h-4.45v-3.09l7-.89-2.51,1.31c.6-6.92,2.35-10.41,5.48-13.17s6.88-3.64,10.95-3.64c4.79,0,8.63,1.94,8.91,5.58a3.34,3.34,0,0,1-3.49,3.12c-1.8,0-3.19-1.11-4.6-3.44l-2.35-3.43,2.6,0a10.52,10.52,0,0,0-7,3c-2.59,2.61-3.54,5.91-3.24,13.74V238.4q0,6.3.18,12.6H331.5Q331.68,244.7,331.68,238.4Zm-4.19,10.15,6.34-1.2H337l6.5,1.2V251h-16Zm7.82-26.28h20.58v3.63H335.31Zm15.08,16.13v-3.66c0-3.87-.06-6.11-.18-8.93l-4.22-.35v-2.23l10.84-1.8,1,.62-.17,8.18v8.17c0,3.72.06,9.9.17,12.6h-7.58C350.33,248.3,350.39,242.12,350.39,238.4Zm-4,10.15,6.07-1.2h2.89l5.92,1.2V251H346.42Z" transform="translate(-211.79 -203.23)"/>
    <path class="cls-1" d="M380.15,247.58c3,0,5-1.74,7.35-5l.63,1.29c-2.63,5.27-5.87,7.95-10.88,7.95-7.06,0-12.11-5.71-12.11-15,0-9.45,5.93-15.46,13-15.46,4.32,0,7,2.13,10,7.14l-.6,1.36c-2.91-3.1-5-4.3-7.33-4.3-4.05,0-7.38,3.49-7.38,11.14C372.82,244,375.89,247.58,380.15,247.58Zm16.44,1V251l-10.48.64-.69-5.72V227.15l.27-.71v-13.8L381,212v-2.32l11-2.7.91.55-.24,8.45v35l-2.55-3.72Z" transform="translate(-211.79 -203.23)"/>
  </g>
</svg>
